<svg width="16" height="16" viewBox="0 0 16 16" xmlns="http://www.w3.org/2000/svg">
  <path d="M6.73623 11.7896C7.85726 11.7894 8.946 11.4141 9.82907 10.7235L12.6055 13.4999L13.4985 12.6069L10.7221 9.83043C11.4131 8.94727 11.7886 7.85829 11.7889 6.73696C11.7889 3.95106 9.52212 1.68433 6.73623 1.68433C3.95033 1.68433 1.68359 3.95106 1.68359 6.73696C1.68359 9.52285 3.95033 11.7896 6.73623 11.7896ZM6.73623 2.94748C8.82612 2.94748 10.5257 4.64706 10.5257 6.73696C10.5257 8.82685 8.82612 10.5264 6.73623 10.5264C4.64633 10.5264 2.94675 8.82685 2.94675 6.73696C2.94675 4.64706 4.64633 2.94748 6.73623 2.94748Z" fill="#8B5CF6" />
  <path d="M7.62878 5.84388C7.86815 6.08388 8.00015 6.40094 8.00015 6.73694H9.26331C9.26387 6.40499 9.19862 6.07624 9.07136 5.76966C8.94409 5.46309 8.75731 5.18478 8.52183 4.95083C7.56562 3.99588 5.90773 3.99588 4.95215 4.95083L5.84394 5.84515C6.32394 5.36641 7.15131 5.36767 7.62878 5.84388Z" fill="#8B5CF6" />
</svg>
