<svg width="25" height="25" viewBox="0 0 25 25" fill="none" xmlns="http://www.w3.org/2000/svg">
<path d="M2 12.6497C2 14.7264 2.61581 16.7564 3.76957 18.4831C4.92332 20.2099 6.5632 21.5557 8.48182 22.3504C10.4004 23.1451 12.5116 23.353 14.5484 22.9479C16.5852 22.5428 18.4562 21.5427 19.9246 20.0743C21.3931 18.6058 22.3931 16.7349 22.7982 14.6981C23.2034 12.6613 22.9955 10.5501 22.2007 8.63148C21.406 6.71286 20.0602 5.07298 18.3335 3.91923C16.6068 2.76547 14.5767 2.14966 12.5 2.14966C9.71523 2.14966 7.04451 3.2559 5.07538 5.22504C3.10625 7.19417 2 9.86489 2 12.6497ZM6.5 11.8997H15.6125L11.4275 7.69441L12.5 6.64966L18.5 12.6497L12.5 18.6497L11.4275 17.5794L15.6125 13.3997H6.5V11.8997Z" fill="#EBF3FC"/>
</svg>
